<svg width="16" height="16" viewBox="0 0 16 16" fill="none" xmlns="http://www.w3.org/2000/svg">
<path d="M11.5919 14.4282H4.05349C3.76787 14.4282 3.49395 14.3147 3.29199 14.1127C3.09002 13.9108 2.97656 13.6369 2.97656 13.3512V3.65894H12.6689V13.3512C12.6689 13.6369 12.5554 13.9108 12.3534 14.1127C12.1515 14.3147 11.8776 14.4282 11.5919 14.4282Z" stroke="#615E83" stroke-width="1.3" stroke-linecap="round" stroke-linejoin="round"/>
<path d="M6.20312 11.1971V6.8894" stroke="#615E83" stroke-width="1.3" stroke-linecap="round" stroke-linejoin="round"/>
<path d="M9.4375 11.1971V6.8894" stroke="#615E83" stroke-width="1.3" stroke-linecap="round" stroke-linejoin="round"/>
<path d="M0.820312 3.65894H14.8203" stroke="#615E83" stroke-width="1.3" stroke-linecap="round" stroke-linejoin="round"/>
<path d="M9.43269 1.50488H6.20192C5.91631 1.50488 5.64239 1.61834 5.44042 1.82031C5.23846 2.02227 5.125 2.29619 5.125 2.58181V3.65873H10.5096V2.58181C10.5096 2.29619 10.3962 2.02227 10.1942 1.82031C9.99223 1.61834 9.71831 1.50488 9.43269 1.50488Z" stroke="#615E83" stroke-width="1.3" stroke-linecap="round" stroke-linejoin="round"/>
</svg>
