<svg width="15" height="15" viewBox="0 0 15 15" fill="none" xmlns="http://www.w3.org/2000/svg">
<path d="M13.1351 1.26457C12.9394 1.06974 12.7071 0.915609 12.4515 0.811081C12.196 0.706552 11.9222 0.653696 11.6461 0.655565C11.37 0.657435 11.097 0.713992 10.8429 0.821971C10.5887 0.92995 10.3585 1.08721 10.1655 1.28467L1.83697 9.61323L0.820312 13.5793L4.78643 12.5621L13.115 4.23355C13.3125 4.04064 13.4698 3.81048 13.5778 3.5564C13.6858 3.30231 13.7424 3.02934 13.7443 2.75325C13.7462 2.47717 13.6933 2.20345 13.5887 1.94792C13.4841 1.6924 13.33 1.46014 13.1351 1.26457V1.26457Z" stroke="#615E83" stroke-width="1.3" stroke-linecap="round" stroke-linejoin="round"/>
</svg>
