<svg width="12" height="12" viewBox="0 0 12 12" fill="none" xmlns="http://www.w3.org/2000/svg">
<path fill-rule="evenodd" clip-rule="evenodd" d="M11.3586 10.6879L6.67051 5.99982L11.3586 1.31173C11.6096 1.06069 11.6096 0.653677 11.3586 0.402636C11.1076 0.151595 10.7005 0.151595 10.4495 0.402636L5.48868 5.36345C5.13722 5.71491 5.13722 6.28473 5.48868 6.63619L10.4495 11.597C10.7005 11.8481 11.1076 11.8481 11.3586 11.597C11.6096 11.346 11.6096 10.939 11.3586 10.6879ZM6.58516 10.6879L1.89707 5.99982L6.58516 1.31173C6.8362 1.06069 6.8362 0.653677 6.58516 0.402636C6.33412 0.151595 5.9271 0.151595 5.67606 0.402636L0.715241 5.36345C0.363785 5.71491 0.363783 6.28473 0.71524 6.63619L5.67606 11.597C5.9271 11.848 6.33412 11.848 6.58516 11.597C6.8362 11.346 6.8362 10.939 6.58516 10.6879Z" fill="#002147"/>
</svg>
