<svg width="12" height="12" viewBox="0 0 12 12" fill="none" xmlns="http://www.w3.org/2000/svg">
<path fill-rule="evenodd" clip-rule="evenodd" d="M0.641455 1.31081L5.33077 6.00013L0.641455 10.6894C0.390348 10.9405 0.390348 11.3477 0.641455 11.5988C0.892561 11.8499 1.29968 11.8499 1.55079 11.5988L6.51291 6.63666C6.86445 6.28512 6.86446 5.71514 6.51291 5.36359L1.55079 0.401477C1.29968 0.150371 0.892561 0.150371 0.641455 0.401477C0.390349 0.652583 0.390349 1.05971 0.641455 1.31081ZM5.41489 1.31081L10.1042 6.00013L5.41489 10.6894C5.16379 10.9405 5.16379 11.3477 5.41489 11.5988C5.666 11.8499 6.07312 11.8499 6.32423 11.5988L11.2863 6.63666C11.6379 6.28512 11.6379 5.71514 11.2863 5.36359L6.32423 0.401477C6.07312 0.150371 5.666 0.150371 5.41489 0.401477C5.16379 0.652583 5.16379 1.05971 5.41489 1.31081Z" fill="#002147"/>
</svg>
