<svg width="19" height="19" viewBox="0 0 19 19" fill="none" xmlns="http://www.w3.org/2000/svg">
<g id="Group">
<g id="Group_2">
<g id="Group_3">
<path id="Vector" d="M3.73903 17.8435L8.84375 12.7425L6.20427 10.103L1.09955 15.2077C0.680646 15.6267 0.680646 16.3162 1.09955 16.7351L2.20798 17.8435C2.6306 18.2625 3.32383 18.2625 3.73903 17.8435Z" fill="#FEFDFE"/>
<path id="Vector_2" d="M7.34477 10.2182L8.72753 11.601L10.3031 10.0254C12.4495 11.5157 15.4226 11.3081 17.3355 9.39521C19.4819 7.24878 19.4819 3.76037 17.3355 1.61024C15.1891 -0.539901 11.7007 -0.536194 9.55051 1.61024C7.63763 3.52312 7.43003 6.49623 8.9203 8.64266L7.34477 10.2182ZM10.633 2.67789C12.19 1.12089 14.7145 1.12089 16.2678 2.67789C17.8248 4.23489 17.8248 6.75944 16.2678 8.31273C14.7108 9.86973 12.1863 9.86972 10.633 8.31273C9.076 6.75944 9.076 4.23488 10.633 2.67789Z" fill="#FEFDFE"/>
</g>
</g>
</g>
</svg>
