<svg width="789" height="406" viewBox="0 0 789 406" fill="none" xmlns="http://www.w3.org/2000/svg">
<path d="M-2 0C35.8173 78.2427 95.559 143.962 169.889 188.986C186.904 199.293 205.071 207.565 224.017 213.632L230.533 215.719C266.377 227.197 303.487 234.262 341.041 236.757L435 243L432.416 243.778C382.86 258.709 330.449 261.55 279.57 252.064L-2 199.571V0Z" fill="#003878"/>
<g filter="url(#filter0_d_1932_1080)">
<path d="M-24 357V109L95 180L103.432 184.334C133.424 199.751 164.662 212.611 196.815 222.779L207 226L275 243L289.319 244.863C320.716 248.947 352.404 250.351 384.039 249.06L385.5 249L431.5 244L436.867 242.964C471.157 236.347 506.135 234.008 541 236L474.5 256.5L427 273.5L400.056 280.657C354.431 292.776 306.925 296.147 260.046 290.593C237.059 287.869 213.879 287.146 190.766 288.43L186.653 288.658C111.83 292.815 39.0476 316.493 -24 357Z" fill="#DC143C"/>
</g>
<path d="M327 258L328.682 261.721L332 259.34L331.596 263.404L335.66 263L333.279 266.318L337 268L333.279 269.682L335.66 273L331.596 272.596L332 276.66L328.682 274.279L327 278L325.318 274.279L322 276.66L322.404 272.596L318.34 273L320.721 269.682L317 268L320.721 266.318L318.34 263L322.404 263.404L322 259.34L325.318 261.721L327 258Z" fill="white"/>
<g filter="url(#filter1_d_1932_1080)">
<path d="M760.616 333.54C744.377 302.116 718.045 276.663 686.184 261.301C654.803 246.171 620.516 237.002 585.763 234.577C571.101 233.554 556.372 234.04 541.809 236.026L522.304 238.685C499.037 241.858 476.143 247.33 453.956 255.022L400.507 273.551L377.358 280.495L354.208 285.704C316.728 292.206 278.362 291.642 241.089 284.043L237.882 283.389L202 275.287L222.15 289.074C237.933 299.873 255.376 308.019 273.787 313.191C289.516 317.609 305.777 319.85 322.114 319.85H342.69C368.042 319.85 393.32 317.103 418.08 311.658L467.027 300.894C502.502 293.092 538.486 287.823 574.708 285.125H581.34C612.964 285.125 644.366 290.407 674.251 300.751C714.678 318.677 750.795 345.059 780.167 378.12L788.5 387.5L760.616 333.54Z" fill="#DC143C"/>
</g>
<path d="M771.5 368.5L766.86 363.241C754.989 349.787 741.687 337.667 727.189 327.095L723.025 324.058C715.69 318.71 707.887 314.037 699.709 310.097C672.141 296.813 642.355 288.739 611.852 286.281L590.33 284.546C543.49 284.546 496.88 291.1 451.856 304.017L449.118 304.802L413.236 311.747L373.307 318.114L347.263 319.85L320.641 319.85L306.173 318.692L289.968 316.956L296.896 318.738C305.768 321.019 314.804 322.608 323.921 323.492L337.694 324.826L372.218 325.892L421.661 322.645L474.159 318.785L545 311.5L589 311.5L606.936 312.364C622.62 313.12 638.219 315.131 653.582 318.377C685.334 325.085 715.846 336.698 744.023 352.799L771.5 368.5Z" fill="#003878"/>
<path fill-rule="evenodd" clip-rule="evenodd" d="M403.529 298.136C411.311 294.112 416.723 286.639 418.211 278.117C418.881 289.56 411.815 300.169 400.914 303.917L400.931 304.045L400.815 303.95C399.873 304.27 398.903 304.538 397.907 304.752C397.884 304.757 397.861 304.762 397.838 304.767L397.771 304.972L397.689 304.798C386.467 307.103 375.423 301.715 370.08 292.208C375.686 298.309 383.88 301.776 392.49 301.205L393.121 299.933L390.219 299.669L392.519 297.879L390.018 296.382L392.867 295.767L391.263 293.333L394.097 294.015L393.708 291.127L395.965 292.971L396.868 290.2L398.102 292.84L400.118 290.735L400.084 293.649L402.813 292.628L401.518 295.239L404.42 295.502L402.121 297.293L403.529 298.136Z" fill="white"/>
<defs>
<filter id="filter0_d_1932_1080" x="-52" y="98" width="625" height="308" filterUnits="userSpaceOnUse" color-interpolation-filters="sRGB">
<feFlood flood-opacity="0" result="BackgroundImageFix"/>
<feColorMatrix in="SourceAlpha" type="matrix" values="0 0 0 0 0 0 0 0 0 0 0 0 0 0 0 0 0 0 127 0" result="hardAlpha"/>
<feOffset dx="2" dy="19"/>
<feGaussianBlur stdDeviation="15"/>
<feComposite in2="hardAlpha" operator="out"/>
<feColorMatrix type="matrix" values="0 0 0 0 0 0 0 0 0 0 0 0 0 0 0 0 0 0 0.25 0"/>
<feBlend mode="normal" in2="BackgroundImageFix" result="effect1_dropShadow_1932_1080"/>
<feBlend mode="normal" in="SourceGraphic" in2="effect1_dropShadow_1932_1080" result="shape"/>
</filter>
<filter id="filter1_d_1932_1080" x="145" y="197.057" width="643.5" height="203.443" filterUnits="userSpaceOnUse" color-interpolation-filters="sRGB">
<feFlood flood-opacity="0" result="BackgroundImageFix"/>
<feColorMatrix in="SourceAlpha" type="matrix" values="0 0 0 0 0 0 0 0 0 0 0 0 0 0 0 0 0 0 127 0" result="hardAlpha"/>
<feOffset dx="-32" dy="-12"/>
<feGaussianBlur stdDeviation="12.5"/>
<feComposite in2="hardAlpha" operator="out"/>
<feColorMatrix type="matrix" values="0 0 0 0 0 0 0 0 0 0 0 0 0 0 0 0 0 0 0.1 0"/>
<feBlend mode="normal" in2="BackgroundImageFix" result="effect1_dropShadow_1932_1080"/>
<feBlend mode="normal" in="SourceGraphic" in2="effect1_dropShadow_1932_1080" result="shape"/>
</filter>
</defs>
</svg>
