<svg width="15" height="15" viewBox="0 0 15 15" fill="none" xmlns="http://www.w3.org/2000/svg">
<mask id="mask0_2283_9355" style="mask-type:luminance" maskUnits="userSpaceOnUse" x="0" y="0" width="15" height="15">
<path d="M14.8203 0.966553H0.820312V14.9666H14.8203V0.966553Z" fill="white"/>
</mask>
<g mask="url(#mask0_2283_9355)">
<path d="M7.07703 3.926C7.31888 3.8978 7.56598 3.8833 7.81768 3.8833C10.5384 3.8833 12.7176 5.57651 13.651 7.96663C13.4208 8.55603 13.1149 9.10308 12.7438 9.59279M4.62082 4.76964C3.43078 5.49567 2.51002 6.62065 1.98438 7.96663C2.91779 10.3568 5.09706 12.05 7.81768 12.05C9.00628 12.05 10.0915 11.7268 11.0147 11.1635M6.58032 6.72914C6.2636 7.04584 6.06771 7.48334 6.06771 7.96663C6.06771 8.93316 6.85122 9.71663 7.81768 9.71663C8.30098 9.71663 8.73853 9.52075 9.05523 9.204" stroke="#615E83" stroke-width="1.45833" stroke-linecap="round" stroke-linejoin="round"/>
<path d="M3.14844 3.30005L12.4818 12.6334" stroke="#615E83" stroke-width="1.3" stroke-linecap="round"/>
</g>
</svg>
