<svg width="790" height="406" viewBox="0 0 790 406" fill="none" xmlns="http://www.w3.org/2000/svg">
<path d="M-1 0C36.8173 78.2427 96.559 143.962 170.889 188.986C187.904 199.293 206.071 207.565 225.017 213.632L231.533 215.719C267.377 227.197 304.487 234.262 342.041 236.757L436 243L433.416 243.778C383.86 258.709 331.449 261.55 280.57 252.064L-1 199.571V0Z" fill="#003878"/>
<g filter="url(#filter0_d_1774_208)">
<path d="M-23 357V109L96 180L104.432 184.334C134.424 199.751 165.662 212.611 197.815 222.779L208 226L276 243L290.319 244.863C321.716 248.947 353.404 250.351 385.039 249.06L386.5 249L432.5 244L437.867 242.964C472.157 236.347 507.135 234.008 542 236L475.5 256.5L428 273.5L401.056 280.657C355.431 292.776 307.925 296.147 261.046 290.593C238.059 287.869 214.879 287.146 191.766 288.43L187.653 288.658C112.83 292.815 40.0476 316.493 -23 357Z" fill="#DC143C"/>
</g>
<path d="M328 258L329.682 261.721L333 259.34L332.596 263.404L336.66 263L334.279 266.318L338 268L334.279 269.682L336.66 273L332.596 272.596L333 276.66L329.682 274.279L328 278L326.318 274.279L323 276.66L323.404 272.596L319.34 273L321.721 269.682L318 268L321.721 266.318L319.34 263L323.404 263.404L323 259.34L326.318 261.721L328 258Z" fill="white"/>
<g filter="url(#filter1_d_1774_208)">
<path d="M761.615 333.54C745.377 302.116 719.044 276.663 687.183 261.301C655.803 246.171 621.516 237.002 586.763 234.577C572.101 233.554 557.372 234.04 542.808 236.026L523.304 238.685C500.037 241.858 477.142 247.33 454.956 255.022L401.507 273.551L378.357 280.495L355.208 285.704C317.727 292.206 279.362 291.642 242.088 284.043L238.881 283.389L203 275.287L223.15 289.074C238.933 299.873 256.375 308.019 274.787 313.191C290.516 317.609 306.776 319.85 323.114 319.85H343.69C369.042 319.85 394.319 317.103 419.08 311.658L468.027 300.894C503.501 293.092 539.485 287.823 575.707 285.125H582.339C613.963 285.125 645.366 290.407 675.25 300.751C715.678 318.677 751.794 345.059 781.166 378.12L789.5 387.5L761.615 333.54Z" fill="#DC143C"/>
</g>
<path d="M772.499 368.5L767.86 363.241C755.989 349.787 742.687 337.667 728.189 327.095L724.025 324.058C716.69 318.71 708.886 314.037 700.709 310.097C673.14 296.813 643.355 288.739 612.852 286.281L591.33 284.546C544.49 284.546 497.88 291.1 452.856 304.017L450.118 304.802L414.236 311.747L374.306 318.114L348.263 319.85L321.641 319.85L307.173 318.692L290.968 316.956L297.896 318.738C306.768 321.019 315.803 322.609 324.921 323.492L338.694 324.826L373.218 325.892L422.661 322.645L475.159 318.785L546 311.5L590 311.5L607.936 312.364C623.62 313.12 639.219 315.131 654.582 318.377C686.334 325.085 716.846 336.698 745.022 352.799L772.499 368.5Z" fill="#003878"/>
<path fill-rule="evenodd" clip-rule="evenodd" d="M404.529 298.136C412.311 294.112 417.723 286.639 419.211 278.117C419.881 289.56 412.815 300.169 401.914 303.917L401.931 304.045L401.815 303.95C400.873 304.27 399.903 304.538 398.907 304.752C398.884 304.757 398.861 304.762 398.838 304.767L398.771 304.972L398.689 304.798C387.467 307.103 376.423 301.715 371.08 292.208C376.686 298.309 384.88 301.776 393.49 301.205L394.121 299.933L391.219 299.669L393.519 297.879L391.018 296.382L393.867 295.767L392.263 293.333L395.097 294.015L394.708 291.127L396.965 292.971L397.868 290.2L399.102 292.84L401.118 290.735L401.084 293.649L403.813 292.628L402.518 295.239L405.42 295.502L403.121 297.293L404.529 298.136Z" fill="white"/>
<defs>
<filter id="filter0_d_1774_208" x="-51" y="98" width="625" height="308" filterUnits="userSpaceOnUse" color-interpolation-filters="sRGB">
<feFlood flood-opacity="0" result="BackgroundImageFix"/>
<feColorMatrix in="SourceAlpha" type="matrix" values="0 0 0 0 0 0 0 0 0 0 0 0 0 0 0 0 0 0 127 0" result="hardAlpha"/>
<feOffset dx="2" dy="19"/>
<feGaussianBlur stdDeviation="15"/>
<feComposite in2="hardAlpha" operator="out"/>
<feColorMatrix type="matrix" values="0 0 0 0 0 0 0 0 0 0 0 0 0 0 0 0 0 0 0.25 0"/>
<feBlend mode="normal" in2="BackgroundImageFix" result="effect1_dropShadow_1774_208"/>
<feBlend mode="normal" in="SourceGraphic" in2="effect1_dropShadow_1774_208" result="shape"/>
</filter>
<filter id="filter1_d_1774_208" x="146" y="197.057" width="643.5" height="203.443" filterUnits="userSpaceOnUse" color-interpolation-filters="sRGB">
<feFlood flood-opacity="0" result="BackgroundImageFix"/>
<feColorMatrix in="SourceAlpha" type="matrix" values="0 0 0 0 0 0 0 0 0 0 0 0 0 0 0 0 0 0 127 0" result="hardAlpha"/>
<feOffset dx="-32" dy="-12"/>
<feGaussianBlur stdDeviation="12.5"/>
<feComposite in2="hardAlpha" operator="out"/>
<feColorMatrix type="matrix" values="0 0 0 0 0 0 0 0 0 0 0 0 0 0 0 0 0 0 0.2 0"/>
<feBlend mode="normal" in2="BackgroundImageFix" result="effect1_dropShadow_1774_208"/>
<feBlend mode="normal" in="SourceGraphic" in2="effect1_dropShadow_1774_208" result="shape"/>
</filter>
</defs>
</svg>
