<svg width="18" height="19" viewBox="0 0 18 19" fill="none" xmlns="http://www.w3.org/2000/svg">
<path d="M6.93277 1.83713L7.17992 3.11285C6.13598 3.31586 5.15051 3.74928 4.29535 4.38151C3.44019 5.01374 2.7369 5.82885 2.23676 6.7674C1.73662 7.70595 1.45224 8.74428 1.40434 9.80669C1.35645 10.8691 1.54625 11.9288 1.95992 12.9086L0.764203 13.4143C0.275082 12.2564 0.0505609 11.004 0.107015 9.74835C0.16347 8.4927 0.499476 7.26548 1.09053 6.1562C1.68158 5.04692 2.51277 4.08354 3.52348 3.33634C4.5342 2.58914 5.69894 2.07695 6.93277 1.83713ZM3.14706 16.6228L3.97849 15.6228C5.25973 16.6914 6.87587 17.2754 8.5442 17.2728C10.2585 17.2728 11.8771 16.6671 13.1585 15.5828L13.9985 16.5743C12.4748 17.8668 10.5408 18.5748 8.54277 18.5714C6.57143 18.5742 4.66172 17.8846 3.14706 16.6228ZM11.4756 3.60856C11.2427 4.20879 10.7993 4.7037 10.2282 5.00085C9.65703 5.29801 8.99725 5.37708 8.37206 5.22329C7.74688 5.0695 7.19907 4.69337 6.83096 4.16517C6.46285 3.63697 6.29962 2.99282 6.37176 2.35305C6.44391 1.71329 6.74649 1.12167 7.22298 0.688708C7.69948 0.255749 8.3173 0.0110657 8.96103 0.000366292C9.60476 -0.0103331 10.2304 0.213683 10.721 0.630568C11.2116 1.04745 11.5337 1.62869 11.6271 2.2657C12.9907 2.8011 14.1917 3.68175 15.1123 4.82127C16.0329 5.96079 16.6416 7.32004 16.8785 8.76571C16.9071 8.94285 16.9313 9.17713 16.9528 9.46856C16.9589 9.55288 16.9475 9.63754 16.9194 9.71726C16.8912 9.79698 16.847 9.87003 16.7893 9.93185C16.7316 9.99367 16.6618 10.0429 16.5843 10.0765C16.5067 10.1101 16.423 10.1274 16.3385 10.1271C16.1663 10.1272 16.0005 10.0622 15.8744 9.94505C15.7483 9.82792 15.6711 9.66738 15.6585 9.4957C15.5461 8.23177 15.0995 7.02049 14.3644 5.98617C13.6294 4.95185 12.6323 4.13174 11.4756 3.60999V3.60856ZM9.00563 4.18285C9.21096 4.18912 9.41546 4.15409 9.607 4.07984C9.79853 4.00559 9.97321 3.89363 10.1207 3.75061C10.2681 3.60758 10.3854 3.4364 10.4654 3.24722C10.5455 3.05804 10.5867 2.8547 10.5867 2.64928C10.5867 2.44385 10.5455 2.24052 10.4654 2.05133C10.3854 1.86215 10.2681 1.69097 10.1207 1.54795C9.97321 1.40492 9.79853 1.29296 9.607 1.21872C9.41546 1.14447 9.21096 1.10944 9.00563 1.1157C8.607 1.12787 8.22878 1.29478 7.95111 1.58105C7.67344 1.86732 7.51816 2.25046 7.51816 2.64928C7.51816 3.04809 7.67344 3.43123 7.95111 3.7175C8.22878 4.00377 8.607 4.17068 9.00563 4.18285ZM2.74277 17.3257C2.38969 17.3339 2.03853 17.2714 1.70992 17.142C1.38132 17.0125 1.08192 16.8187 0.829297 16.5719C0.576678 16.3251 0.375945 16.0302 0.238897 15.7047C0.101849 15.3792 0.03125 15.0296 0.03125 14.6764C0.03125 14.3232 0.101849 13.9736 0.238897 13.6481C0.375945 13.3226 0.576678 13.0278 0.829297 12.781C1.08192 12.5341 1.38132 12.3403 1.70992 12.2109C2.03853 12.0814 2.38969 12.0189 2.74277 12.0271C3.4456 12.0271 4.11964 12.3063 4.61661 12.8033C5.11358 13.3003 5.39277 13.9743 5.39277 14.6771C5.39277 15.38 5.11358 16.054 4.61661 16.551C4.11964 17.0479 3.4456 17.3271 2.74277 17.3271V17.3257ZM2.74277 16.2114C2.94427 16.2114 3.1438 16.1718 3.32997 16.0947C3.51614 16.0176 3.6853 15.9046 3.82779 15.7621C3.97028 15.6196 4.08331 15.4505 4.16043 15.2643C4.23754 15.0782 4.27723 14.8786 4.27723 14.6771C4.27723 14.4756 4.23754 14.2761 4.16043 14.0899C4.08331 13.9038 3.97028 13.7346 3.82779 13.5922C3.6853 13.4497 3.51614 13.3367 3.32997 13.2596C3.1438 13.1825 2.94427 13.1428 2.74277 13.1428C2.33589 13.1429 1.94568 13.3046 1.65798 13.5923C1.37029 13.88 1.20866 14.2702 1.20866 14.6771C1.20866 15.084 1.37029 15.4742 1.65798 15.762C1.94568 16.0497 2.33589 16.2114 2.74277 16.2114ZM15.2571 17.3257C14.904 17.3339 14.5528 17.2714 14.2242 17.142C13.8956 17.0125 13.5962 16.8187 13.3436 16.5719C13.091 16.3251 12.8902 16.0302 12.7532 15.7047C12.6161 15.3792 12.5455 15.0296 12.5455 14.6764C12.5455 14.3232 12.6161 13.9736 12.7532 13.6481C12.8902 13.3226 13.091 13.0278 13.3436 12.781C13.5962 12.5341 13.8956 12.3403 14.2242 12.2109C14.5528 12.0814 14.904 12.0189 15.2571 12.0271C15.9599 12.0271 16.6339 12.3063 17.1309 12.8033C17.6279 13.3003 17.9071 13.9743 17.9071 14.6771C17.9071 15.38 17.6279 16.054 17.1309 16.551C16.6339 17.0479 15.9599 17.3271 15.2571 17.3271V17.3257ZM15.2571 16.2114C15.4586 16.2114 15.6581 16.1718 15.8443 16.0947C16.0304 16.0176 16.1996 15.9046 16.3421 15.7621C16.4846 15.6196 16.5976 15.4505 16.6747 15.2643C16.7518 15.0782 16.7915 14.8786 16.7915 14.6771C16.7915 14.4756 16.7518 14.2761 16.6747 14.0899C16.5976 13.9038 16.4846 13.7346 16.3421 13.5922C16.1996 13.4497 16.0304 13.3367 15.8443 13.2596C15.6581 13.1825 15.4586 13.1428 15.2571 13.1428C14.8502 13.1429 14.46 13.3046 14.1723 13.5923C13.8846 13.88 13.7229 14.2702 13.7229 14.6771C13.7229 15.084 13.8846 15.4742 14.1723 15.762C14.46 16.0497 14.8502 16.2114 15.2571 16.2114Z" fill="#9291A5"/>
</svg>
