<svg width="17" height="16" viewBox="0 0 17 16" fill="none" xmlns="http://www.w3.org/2000/svg">
<path d="M12.2951 14.3859H4.75661C4.47099 14.3859 4.19707 14.2725 3.99511 14.0705C3.79315 13.8685 3.67969 13.5946 3.67969 13.309V3.6167H13.372V13.309C13.372 13.5946 13.2585 13.8685 13.0566 14.0705C12.8546 14.2725 12.5807 14.3859 12.2951 14.3859Z" stroke="#615E83" stroke-width="1.3" stroke-linecap="round" stroke-linejoin="round"/>
<path d="M6.90625 11.1549V6.84717" stroke="#615E83" stroke-width="1.3" stroke-linecap="round" stroke-linejoin="round"/>
<path d="M10.1406 11.1549V6.84717" stroke="#615E83" stroke-width="1.3" stroke-linecap="round" stroke-linejoin="round"/>
<path d="M1.52344 3.6167H15.5234" stroke="#615E83" stroke-width="1.3" stroke-linecap="round" stroke-linejoin="round"/>
<path d="M10.1358 1.4624H6.90505C6.61943 1.4624 6.34551 1.57586 6.14355 1.77783C5.94159 1.97979 5.82813 2.25371 5.82812 2.53933V3.61625H11.2127V2.53933C11.2127 2.25371 11.0993 1.97979 10.8973 1.77783C10.6954 1.57586 10.4214 1.4624 10.1358 1.4624Z" stroke="#615E83" stroke-width="1.3" stroke-linecap="round" stroke-linejoin="round"/>
</svg>
