<svg width="16" height="15" viewBox="0 0 16 15" fill="none" xmlns="http://www.w3.org/2000/svg">
<path d="M13.8382 1.92057C13.6426 1.72574 13.4102 1.57162 13.1547 1.46709C12.8991 1.36256 12.6254 1.3097 12.3492 1.31157C12.0731 1.31344 11.8001 1.37 11.546 1.47798C11.2919 1.58596 11.0617 1.74322 10.8687 1.94067L2.5401 10.2692L1.52344 14.2354L5.48955 13.2181L13.8181 4.88956C14.0156 4.69664 14.1729 4.46649 14.2809 4.2124C14.389 3.95832 14.4455 3.68534 14.4474 3.40926C14.4493 3.13317 14.3964 2.85946 14.2918 2.60393C14.1873 2.34841 14.0331 2.11614 13.8382 1.92057V1.92057Z" stroke="#615E83" stroke-width="1.3" stroke-linecap="round" stroke-linejoin="round"/>
</svg>
