<svg width="12" height="15" viewBox="0 0 12 15" fill="none" xmlns="http://www.w3.org/2000/svg">
<path d="M9.76863 10.6046C9.14422 11.229 7.83844 12.5348 6.93993 13.4333C6.41923 13.954 5.57585 13.9543 5.05515 13.4336C4.17229 12.5507 2.89179 11.2702 2.22616 10.6046C0.143363 8.52177 0.143363 5.14489 2.22616 3.0621C4.30896 0.979301 7.68584 0.979301 9.76863 3.0621C11.8514 5.14489 11.8514 8.52177 9.76863 10.6046Z" stroke="#9291A5" stroke-width="1.33333" stroke-linecap="round" stroke-linejoin="round"/>
<path d="M7.9974 6.83333C7.9974 7.9379 7.10197 8.83333 5.9974 8.83333C4.89283 8.83333 3.9974 7.9379 3.9974 6.83333C3.9974 5.72876 4.89283 4.83333 5.9974 4.83333C7.10197 4.83333 7.9974 5.72876 7.9974 6.83333Z" stroke="#9291A5" stroke-width="1.33333" stroke-linecap="round" stroke-linejoin="round"/>
</svg>
