<svg width="14" height="14" viewBox="0 0 14 14" fill="none" xmlns="http://www.w3.org/2000/svg">
<path d="M8.62035 12.5329L8.62691 12.5375C9.19352 12.8983 9.86626 13.0549 10.534 12.9816C11.2017 12.9083 11.8244 12.6093 12.2992 12.1342L12.7117 11.7217C12.8031 11.6304 12.8756 11.5219 12.9251 11.4025C12.9745 11.2831 13 11.1552 13 11.026C13 10.8967 12.9745 10.7688 12.9251 10.6494C12.8756 10.53 12.8031 10.4215 12.7117 10.3302L10.9719 8.59175C10.8806 8.50035 10.7721 8.42783 10.6527 8.37836C10.5333 8.32889 10.4054 8.30343 10.2762 8.30343C10.1469 8.30343 10.019 8.32889 9.89959 8.37836C9.7802 8.42783 9.67174 8.50035 9.58039 8.59175C9.39593 8.77616 9.14578 8.87975 8.88495 8.87975C8.62412 8.87975 8.37397 8.77616 8.18951 8.59175L5.40775 5.80934C5.22335 5.62488 5.11975 5.37473 5.11975 5.1139C5.11975 4.85307 5.22335 4.60292 5.40775 4.41846C5.49916 4.32711 5.57167 4.21865 5.62114 4.09926C5.67062 3.97988 5.69608 3.85192 5.69608 3.72269C5.69608 3.59346 5.67062 3.4655 5.62114 3.34612C5.57167 3.22674 5.49916 3.11827 5.40775 3.02692L3.66866 1.28849C3.4842 1.10408 3.23405 1.00049 2.97322 1.00049C2.71239 1.00049 2.46224 1.10408 2.27778 1.28849L1.86465 1.70096C1.38961 2.17586 1.09079 2.7986 1.01758 3.46631C0.944375 4.13401 1.10115 4.80671 1.46201 5.37325L1.46594 5.37981C3.37172 8.19947 5.80035 10.6276 8.62035 12.5329V12.5329Z" stroke="#9291A5" stroke-width="1.5" stroke-linecap="round" stroke-linejoin="round"/>
</svg>
