<svg width="18" height="18" viewBox="0 0 18 18" fill="none" xmlns="http://www.w3.org/2000/svg">
<g clip-path="url(#clip0_2310_14665)">
<path d="M5.6872 9.28126C5.71643 9.30432 5.74566 9.32739 5.77578 9.35116C6.28551 9.77946 6.58132 10.3839 6.67158 11.0391C6.71124 11.7835 6.54234 12.4913 6.04316 13.0649C6.00681 13.1048 5.9703 13.1444 5.9333 13.1836C6.03669 13.2703 6.14268 13.3464 6.25629 13.4187C6.9214 13.861 7.31843 14.5199 7.48017 15.293C7.56346 15.7653 7.60101 16.3335 7.32046 16.7433C7.10435 17.0118 6.8538 17.1406 6.51777 17.1958C6.48631 17.2014 6.45485 17.2069 6.42244 17.2127C5.64678 17.3445 4.86308 17.4103 4.07661 17.4089C4.05169 17.4089 4.02677 17.4089 4.00109 17.4088C3.32299 17.4069 2.65419 17.357 1.98282 17.2617C1.93222 17.2545 1.8816 17.2475 1.83095 17.2406C1.36818 17.1772 1.0332 17.0642 0.741157 16.686C0.570963 16.461 0.577029 16.1954 0.578559 15.9258C0.578819 15.872 0.578819 15.872 0.579083 15.8172C0.591706 14.9977 0.899418 14.2642 1.48629 13.6892C1.69267 13.4982 1.91738 13.3393 2.17158 13.2188C2.1592 13.2025 2.14683 13.1863 2.13409 13.1696C2.07579 13.0926 2.01823 13.015 1.96064 12.9375C1.92964 12.8969 1.92964 12.8969 1.89802 12.8554C1.48541 12.2962 1.35511 11.6114 1.44303 10.9283C1.55771 10.2433 1.93979 9.63274 2.48798 9.21094C3.46073 8.55053 4.75254 8.53198 5.6872 9.28126ZM3.01533 10.1602C2.99258 10.1786 2.96983 10.197 2.94639 10.2159C2.67164 10.4619 2.50832 10.8443 2.47617 11.2077C2.47321 11.508 2.49223 11.7494 2.62861 12.0234C2.65097 12.0689 2.65097 12.0689 2.67379 12.1153C2.88498 12.503 3.21031 12.7319 3.62328 12.871C4.05 12.9736 4.49793 12.9241 4.87627 12.7009C5.23173 12.4593 5.51348 12.1133 5.60563 11.6852C5.66447 11.2482 5.60888 10.8383 5.3642 10.4656C5.11078 10.1334 4.77649 9.86966 4.35978 9.78347C3.84772 9.71835 3.41343 9.82958 3.01533 10.1602ZM2.02834 14.6372C1.76249 14.9919 1.63694 15.3923 1.64204 15.8313C1.64219 15.8573 1.64235 15.8834 1.64252 15.9102C1.64293 15.974 1.64356 16.0378 1.64423 16.1016C1.88173 16.1798 2.12445 16.2101 2.37153 16.2444C2.41383 16.2505 2.45614 16.2566 2.49972 16.2629C3.00659 16.3343 3.50391 16.356 4.01508 16.3565C4.04839 16.3565 4.08169 16.3565 4.11601 16.3566C4.90793 16.3564 5.68184 16.2837 6.46064 16.1367C6.48103 15.5417 6.39396 15.0357 6.00608 14.5605C5.64446 14.1825 5.15795 13.9645 4.63687 13.9474C4.57769 13.9467 4.51852 13.9464 4.45934 13.9465C4.42737 13.9463 4.3954 13.9462 4.36246 13.946C4.2953 13.9458 4.22815 13.9458 4.161 13.9459C4.05964 13.946 3.95831 13.9452 3.85695 13.9443C3.13476 13.9418 2.52932 14.0702 2.02834 14.6372Z" fill="#9291A5"/>
<path d="M15.633 1.1968C16.1593 1.64595 16.5117 2.26629 16.5675 2.96026C16.6106 3.68989 16.4355 4.38415 15.9439 4.94218C15.9042 4.98308 15.8642 5.02365 15.823 5.06303C15.9024 5.12413 15.9829 5.1813 16.0662 5.23689C16.6021 5.59409 16.9939 6.03934 17.2293 6.64506C17.2449 6.68442 17.2449 6.68442 17.2607 6.72457C17.3877 7.07304 17.4128 7.42397 17.4183 7.79203C17.4192 7.82598 17.4201 7.85993 17.421 7.89491C17.4218 8.19028 17.3546 8.47138 17.1502 8.69511C17.1319 8.716 17.1136 8.73689 17.0947 8.75842C16.884 8.94147 16.6837 9.03 16.4097 9.07524C16.3783 9.0808 16.3469 9.08637 16.3145 9.0921C14.8611 9.33845 13.3799 9.34558 11.9207 9.14555C11.8815 9.1403 11.8423 9.13506 11.802 9.12965C11.3502 9.06324 10.9568 8.97705 10.6551 8.61381C10.3724 8.1432 10.436 7.50522 10.5482 6.9888C10.7555 6.23541 11.1957 5.63014 11.8504 5.20365C11.9201 5.16737 11.9903 5.13187 12.0613 5.09819C12.0489 5.08237 12.0366 5.06655 12.0238 5.05026C11.5308 4.40785 11.2559 3.73671 11.323 2.9185C11.4209 2.18621 11.7897 1.55549 12.3689 1.09916C13.3682 0.380504 14.6741 0.447315 15.633 1.1968ZM12.6855 2.27182C12.4151 2.64101 12.3411 3.02969 12.3777 3.481C12.4733 3.94306 12.7346 4.28061 13.1094 4.55601C13.4621 4.78527 13.83 4.81789 14.241 4.78178C14.6246 4.69775 15.0053 4.46347 15.2298 4.14018C15.487 3.73506 15.5803 3.31267 15.4826 2.83651C15.3617 2.44558 15.1262 2.08752 14.7719 1.87219C14.0241 1.4832 13.2377 1.61691 12.6855 2.27182ZM12.2371 6.22319C12.2141 6.23982 12.1911 6.25645 12.1673 6.27359C11.8318 6.53567 11.636 6.9344 11.547 7.34461C11.5316 7.47365 11.5301 7.60082 11.5318 7.73051C11.5319 7.75471 11.5321 7.77891 11.5323 7.80384C11.5327 7.8629 11.5333 7.92195 11.534 7.981C11.8187 8.05805 12.1032 8.10556 12.3953 8.1436C12.4447 8.15007 12.4447 8.15007 12.495 8.15668C12.9644 8.21565 13.4301 8.23544 13.9026 8.23588C13.9324 8.23593 13.9622 8.23598 13.9929 8.23602C14.7859 8.23575 15.571 8.16691 16.3504 8.01615C16.37 7.4039 16.2967 6.9149 15.8912 6.42753C15.5685 6.08583 15.1292 5.85743 14.6568 5.83242C14.5662 5.83009 14.4757 5.82883 14.3851 5.82809C14.3515 5.82781 14.3179 5.82752 14.2834 5.82723C14.2123 5.82675 14.1413 5.82637 14.0703 5.82609C13.9986 5.82569 13.927 5.82497 13.8553 5.82393C13.248 5.8151 12.7399 5.84442 12.2371 6.22319Z" fill="#9291A5"/>
<path d="M5.20441 1.53687C5.25693 1.53652 5.25693 1.53652 5.31052 1.53616C5.42573 1.53549 5.54093 1.53535 5.65614 1.53528C5.73647 1.53505 5.8168 1.53481 5.89713 1.53457C6.06525 1.53415 6.23337 1.53402 6.40149 1.53406C6.61684 1.53406 6.83218 1.5331 7.04754 1.53189C7.21333 1.53111 7.37911 1.53097 7.5449 1.53101C7.62431 1.53092 7.70371 1.53061 7.78311 1.53007C7.89411 1.52938 8.00506 1.52958 8.11606 1.53001C8.14877 1.52961 8.18149 1.52922 8.2152 1.52881C8.41125 1.53071 8.52393 1.55667 8.67944 1.68771C8.80603 1.82695 8.80261 1.97652 8.79727 2.15669C8.77529 2.32306 8.70034 2.41699 8.57145 2.51853C8.42798 2.58555 8.30294 2.58127 8.14643 2.58014C8.11428 2.58033 8.08213 2.58052 8.049 2.58072C7.97933 2.58106 7.90966 2.58116 7.83999 2.58106C7.72958 2.5809 7.61918 2.58139 7.50877 2.58205C7.27424 2.58335 7.03971 2.58383 6.80518 2.5842C6.5337 2.58462 6.26223 2.58538 5.99075 2.58701C5.88224 2.58748 5.77374 2.58734 5.66523 2.58717C5.59828 2.5875 5.53134 2.58786 5.46439 2.58825C5.43445 2.58803 5.4045 2.58781 5.37365 2.58759C5.13321 2.59005 4.9402 2.63463 4.74634 2.78634C4.60475 2.96958 4.59255 3.16704 4.59334 3.39264C4.59333 3.41771 4.59332 3.44278 4.59331 3.46861C4.59335 3.55059 4.5939 3.63257 4.59445 3.71455C4.59458 3.77174 4.59468 3.82893 4.59475 3.88611C4.59502 4.03598 4.59571 4.18584 4.59649 4.3357C4.59721 4.48889 4.59753 4.64208 4.59789 4.79526C4.59864 5.09535 4.59984 5.39544 4.60132 5.69552C4.62212 5.67391 4.64292 5.65229 4.66435 5.63002C4.70602 5.5874 4.70602 5.5874 4.74854 5.54391C4.77586 5.51577 4.80319 5.48763 4.83134 5.45863C4.99388 5.30902 5.1502 5.23124 5.37476 5.23849C5.56934 5.30011 5.68776 5.38138 5.80542 5.54611C5.85796 5.70374 5.85562 5.84481 5.79662 5.99743C5.69847 6.16492 5.56942 6.29005 5.43243 6.42653C5.40351 6.45563 5.37459 6.48473 5.3448 6.51472C5.2837 6.57604 5.22247 6.63723 5.16111 6.69829C5.06752 6.79157 4.97462 6.88549 4.88174 6.97948C4.82218 7.0391 4.76258 7.09868 4.70294 7.15822C4.67532 7.18623 4.6477 7.21425 4.61924 7.24311C4.44954 7.41069 4.30476 7.53713 4.06093 7.57007C3.90558 7.55538 3.81093 7.52178 3.69514 7.41559C3.67079 7.39337 3.64645 7.37114 3.62137 7.34825C3.49951 7.23299 3.37913 7.11647 3.26016 6.99823C3.2342 6.97246 3.20823 6.9467 3.18148 6.92015C3.12713 6.86613 3.07283 6.81207 3.01858 6.75795C2.93552 6.67524 2.8521 6.59291 2.76866 6.51057C2.71568 6.45782 2.66271 6.40504 2.60977 6.35223C2.58487 6.32776 2.55997 6.3033 2.53431 6.27809C2.37263 6.11567 2.29232 6.00504 2.26562 5.77243C2.27122 5.5986 2.33797 5.46939 2.45679 5.34396C2.60679 5.24545 2.77252 5.21516 2.9487 5.24659C3.09266 5.30177 3.19396 5.41175 3.30054 5.51974C3.33718 5.55645 3.37384 5.59313 3.41052 5.62979C3.42945 5.6487 3.44837 5.66762 3.46787 5.68711C3.48226 5.70149 3.49665 5.71587 3.51147 5.73068C3.5116 5.6955 3.51173 5.66032 3.51186 5.62408C3.51317 5.29102 3.5152 4.95797 3.51794 4.62492C3.51932 4.45374 3.52046 4.28256 3.521 4.11136C3.52154 3.94586 3.52275 3.78038 3.52442 3.61489C3.52494 3.55205 3.52522 3.4892 3.52525 3.42636C3.52579 2.8638 3.60618 2.42045 4.00723 1.99629C4.35494 1.66763 4.73404 1.53641 5.20441 1.53687Z" fill="#9291A5"/>
<path d="M14.1667 10.4766C14.2338 10.5245 14.2338 10.5245 14.2994 10.5847C14.3237 10.6069 14.3481 10.6291 14.3732 10.652C14.495 10.7673 14.6154 10.8838 14.7344 11.002C14.7603 11.0278 14.7863 11.0535 14.8131 11.0801C14.8674 11.1341 14.9217 11.1882 14.976 11.2423C15.059 11.325 15.1424 11.4073 15.2259 11.4897C15.2789 11.5424 15.3318 11.5952 15.3848 11.648C15.4097 11.6725 15.4346 11.6969 15.4602 11.7222C15.6227 11.8854 15.704 11.9953 15.7267 12.23C15.7221 12.3942 15.669 12.4887 15.5729 12.6211C15.4413 12.7278 15.3189 12.7531 15.151 12.7618C14.9307 12.7216 14.8249 12.6343 14.6786 12.4761C14.6596 12.4563 14.6406 12.4365 14.621 12.4161C14.5746 12.3676 14.5288 12.3187 14.4831 12.2696C14.4829 12.3047 14.4828 12.3399 14.4827 12.3762C14.4814 12.7092 14.4793 13.0423 14.4766 13.3753C14.4752 13.5465 14.4741 13.7177 14.4735 13.8889C14.473 14.0544 14.4718 14.2199 14.4701 14.3854C14.4696 14.4482 14.4693 14.511 14.4693 14.5739C14.4688 15.1364 14.3884 15.5798 13.9873 16.004C13.6396 16.3326 13.2605 16.4638 12.7901 16.4634C12.7376 16.4637 12.7376 16.4637 12.684 16.4641C12.5688 16.4648 12.4536 16.4649 12.3384 16.465C12.2581 16.4652 12.1777 16.4654 12.0974 16.4657C11.9293 16.4661 11.7612 16.4662 11.5931 16.4662C11.3777 16.4662 11.1624 16.4671 10.947 16.4683C10.7812 16.4691 10.6154 16.4693 10.4496 16.4692C10.3702 16.4693 10.2908 16.4696 10.2114 16.4702C10.1004 16.4709 9.98947 16.4707 9.87848 16.4702C9.84576 16.4706 9.81305 16.471 9.77934 16.4714C9.58328 16.4695 9.47061 16.4436 9.3151 16.3125C9.18851 16.1733 9.19193 16.0237 9.19727 15.8436C9.21925 15.6772 9.2942 15.5833 9.42309 15.4817C9.56656 15.4147 9.6916 15.419 9.84811 15.4201C9.88026 15.4199 9.91241 15.4197 9.94554 15.4195C10.0152 15.4192 10.0849 15.4191 10.1545 15.4192C10.265 15.4193 10.3754 15.4189 10.4858 15.4182C10.7203 15.4169 10.9548 15.4164 11.1894 15.416C11.4608 15.4156 11.7323 15.4149 12.0038 15.4132C12.1123 15.4128 12.2208 15.4129 12.3293 15.4131C12.3963 15.4127 12.4632 15.4124 12.5302 15.412C12.5601 15.4122 12.59 15.4124 12.6209 15.4127C12.8279 15.4105 13.0369 15.3875 13.2009 15.2469C13.3724 15.0556 13.4021 14.8608 13.4012 14.6116C13.4012 14.5865 13.4012 14.5615 13.4012 14.5356C13.4012 14.4535 13.4006 14.3713 13.4001 14.2891C13.4 14.2319 13.3999 14.1746 13.3998 14.1174C13.3995 13.9673 13.3988 13.8171 13.398 13.667C13.3973 13.5135 13.397 13.3601 13.3967 13.2067C13.3959 12.906 13.3947 12.6054 13.3932 12.3047C13.3724 12.3263 13.3516 12.348 13.3302 12.3702C13.2885 12.4128 13.2885 12.4128 13.246 12.4563C13.2187 12.4845 13.1913 12.5126 13.1632 12.5416C13.0007 12.6912 12.8443 12.769 12.6198 12.7618C12.4208 12.6987 12.2891 12.6194 12.1891 12.4344C12.1461 12.2801 12.1414 12.1509 12.1978 11.9998C12.2972 11.8348 12.4261 11.7092 12.5621 11.5737C12.591 11.5446 12.6199 11.5155 12.6497 11.4855C12.7108 11.4242 12.7721 11.363 12.8334 11.302C12.927 11.2087 13.0199 11.1147 13.1128 11.0208C13.1724 10.9611 13.232 10.9016 13.2916 10.842C13.333 10.8 13.333 10.8 13.3753 10.7571C13.6105 10.5249 13.8288 10.3716 14.1667 10.4766Z" fill="#9291A5"/>
</g>
<defs>
<clipPath id="clip0_2310_14665">
<rect width="18" height="18" fill="white"/>
</clipPath>
</defs>
</svg>
