<svg width="15" height="15" viewBox="0 0 15 15" fill="none" xmlns="http://www.w3.org/2000/svg">
<mask id="mask0_2225_4559" style="mask-type:luminance" maskUnits="userSpaceOnUse" x="0" y="0" width="15" height="15">
<path d="M14.5234 0.616699H0.523438V14.6167H14.5234V0.616699Z" fill="white"/>
</mask>
<g mask="url(#mask0_2225_4559)">
<path d="M6.78015 3.57639C7.022 3.54819 7.2691 3.53369 7.52081 3.53369C10.2415 3.53369 12.4208 5.2269 13.3541 7.61703C13.124 8.20643 12.8181 8.75347 12.4469 9.24318M4.32394 4.42003C3.1339 5.14606 2.21315 6.27104 1.6875 7.61703C2.62091 10.0072 4.80018 11.7004 7.52081 11.7004C8.70941 11.7004 9.79464 11.3772 10.7178 10.8139M6.28345 6.37954C5.96673 6.69623 5.77083 7.13373 5.77083 7.61703C5.77083 8.58355 6.55434 9.36703 7.52081 9.36703C8.0041 9.36703 8.44166 9.17114 8.75835 8.85439" stroke="#615E83" stroke-width="1.45833" stroke-linecap="round" stroke-linejoin="round"/>
<path d="M2.85156 2.9502L12.1849 12.2835" stroke="#615E83" stroke-width="1.3" stroke-linecap="round"/>
</g>
</svg>
