<svg width="21" height="24" viewBox="0 0 21 24" fill="none" xmlns="http://www.w3.org/2000/svg">
<path id="Icon" d="M14.2222 17.5556H19.7778L18.2167 15.9945C17.7934 15.5712 17.5556 14.997 17.5556 14.3983V10.8889C17.5556 7.98619 15.7004 5.51676 13.1111 4.60157V4.22222C13.1111 2.99492 12.1162 2 10.8889 2C9.66159 2 8.66667 2.99492 8.66667 4.22222V4.60157C6.07735 5.51676 4.22222 7.98619 4.22222 10.8889V14.3983C4.22222 14.997 3.98439 15.5712 3.56104 15.9945L2 17.5556H7.55556M14.2222 17.5556V18.6667C14.2222 20.5076 12.7298 22 10.8889 22C9.04794 22 7.55556 20.5076 7.55556 18.6667V17.5556M14.2222 17.5556H7.55556" stroke="#002147" stroke-width="2.1" stroke-linecap="round" stroke-linejoin="round"/>
</svg>
