<svg width="24" height="24" viewBox="0 0 24 24" fill="none" xmlns="http://www.w3.org/2000/svg">
<mask id="mask0_2029_5995" style="mask-type:luminance" maskUnits="userSpaceOnUse" x="0" y="0" width="24" height="24">
<path d="M24 0H0V23.9995H24V0Z" fill="white"/>
</mask>
<g mask="url(#mask0_2029_5995)">
<path d="M9.03283 0.92395H2.312C1.54641 0.92395 0.925781 1.54458 0.925781 2.31017V10.5956C0.925781 11.3612 1.54641 11.9818 2.312 11.9818H9.03283C9.79843 11.9818 10.419 11.3612 10.419 10.5956V2.31017C10.419 1.54458 9.79843 0.92395 9.03283 0.92395Z" stroke="white" stroke-width="1.5" stroke-linecap="round" stroke-linejoin="round"/>
<path d="M21.691 0.92395H14.9702C14.2046 0.92395 13.584 1.54458 13.584 2.31017V4.28414C13.584 5.04974 14.2046 5.67035 14.9702 5.67035H21.691C22.4566 5.67035 23.0772 5.04974 23.0772 4.28414V2.31017C23.0772 1.54458 22.4566 0.92395 21.691 0.92395Z" stroke="white" stroke-width="1.5" stroke-linecap="round" stroke-linejoin="round"/>
<path d="M21.691 8.83508H14.9702C14.2046 8.83508 13.584 9.45569 13.584 10.2213V21.6895C13.584 22.4551 14.2046 23.0757 14.9702 23.0757H21.691C22.4566 23.0757 23.0772 22.4551 23.0772 21.6895V10.2213C23.0772 9.45569 22.4566 8.83508 21.691 8.83508Z" stroke="white" stroke-width="1.5" stroke-linecap="round" stroke-linejoin="round"/>
<path d="M9.03283 15.1639H2.312C1.54641 15.1639 0.925781 15.7845 0.925781 16.5502V21.6889C0.925781 22.4544 1.54641 23.0751 2.312 23.0751H9.03283C9.79843 23.0751 10.419 22.4544 10.419 21.6889V16.5502C10.419 15.7845 9.79843 15.1639 9.03283 15.1639Z" stroke="white" stroke-width="1.5" stroke-linecap="round" stroke-linejoin="round"/>
</g>
</svg>
