<svg width="24" height="24" viewBox="0 0 24 24" fill="none" xmlns="http://www.w3.org/2000/svg">
<path d="M11.9655 16.2139C8.01517 16.2312 4.7137 18.9889 3.86401 22.6843L3.85302 22.7408C3.8389 22.8035 3.83027 22.8757 3.83027 22.9495C3.83027 23.4908 4.26963 23.9302 4.81098 23.9302C5.27859 23.9302 5.67009 23.6022 5.76816 23.1644L5.76973 23.1582C6.417 20.2882 8.94488 18.1761 11.9655 18.1761C14.9861 18.1761 17.5147 20.2882 18.1534 23.1166L18.1612 23.1589C18.2609 23.603 18.6516 23.9294 19.1192 23.9294C19.6605 23.9294 20.0999 23.4908 20.0999 22.9487C20.0999 22.8741 20.0913 22.802 20.0756 22.7321L20.0771 22.7384C19.2157 18.9882 15.915 16.2304 11.967 16.2139H11.9655ZM6.60216 8.12187C8.84446 8.12187 10.6631 6.30402 10.6631 4.06094C10.6631 1.81785 8.84524 0 6.60216 0C4.35986 0 2.54122 1.81785 2.54122 4.06094C2.54436 6.30245 4.36142 8.11873 6.60216 8.12187ZM6.60216 1.96143C7.76175 1.96143 8.70167 2.90134 8.70167 4.06094C8.70167 5.22053 7.76175 6.16044 6.60216 6.16044C5.44256 6.16044 4.50265 5.22053 4.50265 4.06094C4.50422 2.90212 5.44335 1.96299 6.60216 1.96143ZM17.3994 8.12187C19.6417 8.12187 21.4603 6.30402 21.4603 4.06094C21.4603 1.81785 19.6425 0 17.3994 0C15.1571 0 13.3385 1.81785 13.3385 4.06094C13.3416 6.30245 15.1587 8.11873 17.3994 8.12187ZM17.3994 1.96143C18.559 1.96143 19.4989 2.90134 19.4989 4.06094C19.4989 5.22053 18.559 6.16044 17.3994 6.16044C16.2398 6.16044 15.2999 5.22053 15.2999 4.06094C15.3015 2.90212 16.2406 1.96299 17.3994 1.96143ZM23.978 14.8943C23.3002 11.6689 20.4788 9.28146 17.0997 9.28146C16.7898 9.28146 16.4846 9.30186 16.1857 9.34031L16.221 9.33638C15.4913 7.67623 13.8618 6.53704 11.9655 6.53704C10.0715 6.53704 8.44276 7.6731 7.72331 9.30186L7.71154 9.33168C7.50284 9.305 7.25649 9.28696 7.007 9.28225H6.99993C3.60275 9.29716 0.764171 11.6681 0.0321674 14.8449L0.0227525 14.8935C0.00863026 14.9563 0 15.0292 0 15.1038C0 15.6459 0.439359 16.0853 0.981497 16.0853C1.4491 16.0853 1.83982 15.7581 1.93867 15.3203L1.94024 15.314C2.47689 12.9752 4.53638 11.2547 6.99915 11.2452C7.11213 11.2452 7.22118 11.2609 7.33181 11.268C7.37574 13.7927 9.43367 15.8224 11.9647 15.8224C14.4941 15.8224 16.5505 13.7951 16.5976 11.2766V11.2719C16.7317 11.2617 16.8635 11.2445 17.0008 11.2445C19.4644 11.2539 21.5239 12.9737 22.055 15.2771L22.0621 15.3125C22.161 15.7573 22.5525 16.0845 23.0201 16.0845C23.5614 16.0845 24 15.6459 24 15.1045C24 15.0308 23.9922 14.9586 23.9765 14.8896L23.978 14.8958V14.8943ZM11.9655 13.8602C10.485 13.8602 9.28382 12.6598 9.28382 11.1793C9.28382 9.69886 10.4842 8.49846 11.9647 8.49846C13.4452 8.49846 14.6456 9.69886 14.6456 11.1793C14.6432 12.659 13.4452 13.8579 11.9655 13.8602Z" fill="white"/>
</svg>
