<svg width="21" height="27" viewBox="0 0 21 27" fill="none" xmlns="http://www.w3.org/2000/svg">
<path d="M6.42857 3.71429H3.71429C2.99441 3.71429 2.30402 4.00025 1.795 4.50928C1.28597 5.01831 1 5.7087 1 6.42857V22.7143C1 23.4342 1.28597 24.1245 1.795 24.6336C2.30402 25.1426 2.99441 25.4286 3.71429 25.4286H17.2857C18.0056 25.4286 18.696 25.1426 19.205 24.6336C19.714 24.1245 20 23.4342 20 22.7143V6.42857C20 5.7087 19.714 5.01831 19.205 4.50928C18.696 4.00025 18.0056 3.71429 17.2857 3.71429H14.5714M6.42857 3.71429C6.42857 4.43416 6.71454 5.12455 7.22357 5.63358C7.73259 6.1426 8.42298 6.42857 9.14286 6.42857H11.8571C12.577 6.42857 13.2674 6.1426 13.7764 5.63358C14.2855 5.12455 14.5714 4.43416 14.5714 3.71429M6.42857 3.71429C6.42857 2.99441 6.71454 2.30402 7.22357 1.795C7.73259 1.28597 8.42298 1 9.14286 1H11.8571C12.577 1 13.2674 1.28597 13.7764 1.795C14.2855 2.30402 14.5714 2.99441 14.5714 3.71429M10.5 13.2143H14.5714M10.5 18.6429H14.5714M6.42857 13.2143H6.44214M6.42857 18.6429H6.44214" stroke="white" stroke-width="2" stroke-linecap="round" stroke-linejoin="round"/>
</svg>
